<svg width="766" height="511" viewBox="0 0 766 511" fill="none" xmlns="http://www.w3.org/2000/svg">
<g clip-path="url(#clip0_44_320)">
<path d="M517.294 155.438C510.025 168.418 494.106 170.202 468.602 167.735C449.422 165.877 431.93 164.438 412.748 153.973C399.322 146.654 388.694 136.75 380.938 127.132C372.532 116.712 360.8 104.82 366.551 93.0054C374.455 76.7761 420.164 63.1068 464.548 85.4597C513.304 110.022 524.405 142.75 517.294 155.438Z" fill="url(#paint0_linear_44_320)" fill-opacity="0.4"/>
<path d="M644.432 261.823C617.439 275.222 581.611 257.993 581.611 257.993C581.611 257.993 589.574 219.048 616.582 205.667C643.575 192.268 679.389 209.478 679.389 209.478C679.389 209.478 671.426 248.423 644.432 261.823Z" fill="url(#paint1_linear_44_320)" fill-opacity="0.4"/>
<path d="M597.808 304.134C590.731 304.134 584.993 309.874 584.993 316.956C584.993 324.038 590.731 329.779 597.808 329.779C604.885 329.779 610.622 324.038 610.622 316.956C610.622 309.874 604.885 304.134 597.808 304.134Z" fill="#2AAD7E"/>
<path d="M171.005 207.251C165.179 207.251 160.457 211.977 160.457 217.807C160.457 223.637 165.179 228.363 171.005 228.363C176.831 228.363 181.554 223.637 181.554 217.807C181.554 211.977 176.831 207.251 171.005 207.251Z" fill="#2AAD7E"/>
<path d="M223.531 408.157C216.896 408.157 211.517 402.775 211.517 396.136C211.517 389.497 216.896 384.115 223.531 384.115C230.166 384.115 235.544 389.497 235.544 396.136C235.544 402.775 230.166 408.157 223.531 408.157Z" fill="#2AAD7E"/>
<path d="M531.342 257.775C528.246 257.775 525.736 255.263 525.736 252.165C525.736 249.067 528.246 246.555 531.342 246.555C534.438 246.555 536.948 249.067 536.948 252.165C536.948 255.263 534.438 257.775 531.342 257.775Z" fill="#2AAD7E"/>
<path d="M201.575 112.612C197.594 112.612 194.367 109.382 194.367 105.399C194.367 101.415 197.594 98.186 201.575 98.186C205.556 98.186 208.783 101.415 208.783 105.399C208.783 109.382 205.556 112.612 201.575 112.612Z" fill="#E1E4E5" fill-opacity="0.4"/>
<path d="M137.483 296.869C131.732 296.869 127.071 292.204 127.071 286.45C127.071 280.696 131.732 276.032 137.483 276.032C143.233 276.032 147.894 280.696 147.894 286.45C147.894 292.204 143.233 296.869 137.483 296.869Z" fill="#E1E4E5" fill-opacity="0.4"/>
<path d="M430.075 421.251C425.699 421.251 422.151 417.701 422.151 413.322C422.151 408.943 425.699 405.393 430.075 405.393C434.451 405.393 437.999 408.943 437.999 413.322C437.999 417.701 434.451 421.251 430.075 421.251Z" fill="#E1E4E5" fill-opacity="0.4"/>
<path d="M563.727 197.318C556.515 197.318 550.669 191.468 550.669 184.251C550.669 177.035 556.515 171.185 563.727 171.185C570.938 171.185 576.784 177.035 576.784 184.251C576.784 191.468 570.938 197.318 563.727 197.318Z" fill="#E1E4E5" fill-opacity="0.4"/>
<path d="M102.78 205.257C103.91 209.48 101.406 213.821 97.1856 214.953C92.9653 216.084 88.6273 213.578 87.4965 209.355C86.3657 205.132 88.8702 200.791 93.0905 199.66C97.3108 198.528 101.649 201.034 102.78 205.257Z" fill="#E1E4E5" fill-opacity="0.4"/>
<path d="M261.256 123.759C255.444 123.759 250.732 119.044 250.732 113.228C250.732 107.412 255.444 102.697 261.256 102.697C267.069 102.697 271.78 107.412 271.78 113.228C271.78 119.044 267.069 123.759 261.256 123.759Z" fill="#E1E4E5" fill-opacity="0.4"/>
<path d="M651.613 373.607C647.142 373.607 643.517 370.706 643.517 367.127C643.517 363.548 647.142 360.647 651.613 360.647C656.084 360.647 659.709 363.548 659.709 367.127C659.709 370.706 656.084 373.607 651.613 373.607Z" fill="#E1E4E5" fill-opacity="0.4"/>
<path d="M368.001 421.307C370.355 430.096 365.142 439.13 356.359 441.485C347.576 443.84 338.548 438.625 336.194 429.835C333.841 421.046 339.053 412.012 347.836 409.657C356.62 407.302 365.648 412.518 368.001 421.307Z" fill="#E1E4E5" fill-opacity="0.4"/>
<path d="M234.818 269.154H235.03C236.285 286.934 249.499 287.208 249.499 287.208C249.499 287.208 234.927 287.493 234.927 308.038C234.927 287.493 220.355 287.208 220.355 287.208C220.355 287.208 233.564 286.934 234.818 269.154ZM191.585 329.091H191.696C192.351 338.744 199.26 338.893 199.26 338.893C199.26 338.893 191.642 339.048 191.642 350.202C191.642 339.048 184.023 338.893 184.023 338.893C184.023 338.893 190.93 338.744 191.585 329.091Z" fill="#E1E4E5" fill-opacity="0.4"/>
<path d="M329.777 221.428V183.836C329.777 156.155 352.205 133.712 379.868 133.712C407.531 133.712 429.959 156.155 429.959 183.836V221.428" stroke="#2AAD7E" stroke-width="23" stroke-linecap="round" stroke-linejoin="round"/>
<path fill-rule="evenodd" clip-rule="evenodd" d="M453.978 374.748H305.756C289.378 374.748 276.112 361.473 276.112 345.083V241.26C276.112 224.871 289.378 211.597 305.756 211.597H453.978C470.357 211.597 483.623 224.871 483.623 241.26V345.083C483.623 361.473 470.357 374.748 453.978 374.748Z" fill="#2AAD7E" stroke="#2AAD7E" stroke-width="17.13" stroke-linecap="round" stroke-linejoin="round"/>
<path d="M378.894 328.759V291.558M378.853 269.4C372.816 269.4 367.918 274.301 367.962 280.341C367.962 286.381 372.86 291.283 378.896 291.283C384.932 291.283 389.83 286.381 389.83 280.341C389.83 274.301 384.932 269.4 378.853 269.4Z" stroke="white" stroke-opacity="0.5" stroke-width="35.743" stroke-linecap="round" stroke-linejoin="round"/>
<path d="M261.672 108.352H115.112C97.6029 108.352 83.4089 122.555 83.4089 140.076C83.4089 157.596 97.6029 171.799 115.112 171.799H261.672C279.181 171.799 293.375 157.596 293.375 140.076C293.375 122.555 279.181 108.352 261.672 108.352Z" fill="url(#paint2_linear_44_320)" fill-opacity="0.4"/>
<path d="M282.46 84.4299H135.9C118.391 84.4299 104.197 98.6329 104.197 116.153C104.197 133.674 118.391 147.877 135.9 147.877H282.46C299.969 147.877 314.163 133.674 314.163 116.153C314.163 98.6329 299.969 84.4299 282.46 84.4299Z" fill="#316C57"/>
<path d="M141.938 125.078H146.605L146.154 118.36L151.775 122.127L154.1 118.03L148.063 115.079L154.1 112.128L151.775 108.03L146.154 111.798L146.605 105.079H141.938L142.372 111.798L136.752 108.03L134.426 112.128L140.481 115.079L134.426 118.03L136.752 122.127L142.372 118.36L141.938 125.078ZM174.4 125.078H179.066L178.615 118.36L184.236 122.127L186.56 118.03L180.523 115.079L186.56 112.128L184.236 108.03L178.615 111.798L179.066 105.079H174.4L174.833 111.798L169.212 108.03L166.888 112.128L172.942 115.079L166.888 118.03L169.212 122.127L174.833 118.36L174.4 125.078ZM206.86 125.078H211.527L211.076 118.36L216.696 122.127L219.022 118.03L212.984 115.079L219.022 112.128L216.696 108.03L211.076 111.798L211.527 105.079H206.86L207.293 111.798L201.673 108.03L199.348 112.128L205.403 115.079L199.348 118.03L201.673 122.127L207.293 118.36L206.86 125.078ZM239.321 125.078H243.987L243.536 118.36L249.158 122.127L251.482 118.03L245.444 115.079L251.482 112.128L249.158 108.03L243.536 111.798L243.987 105.079H239.321L239.755 111.798L234.134 108.03L231.809 112.128L237.864 115.079L231.809 118.03L234.134 122.127L239.755 118.36L239.321 125.078ZM271.781 125.078H276.449L275.998 118.36L281.618 122.127L283.943 118.03L277.906 115.079L283.943 112.128L281.618 108.03L275.998 111.798L276.449 105.079H271.781L272.215 111.798L266.594 108.03L264.269 112.128L270.324 115.079L264.269 118.03L266.594 122.127L272.215 118.36L271.781 125.078Z" fill="white" fill-opacity="0.5"/>
<path fill-rule="evenodd" clip-rule="evenodd" d="M569.467 362.818C569.467 398.477 542.641 431.82 506.588 439.916C470.534 431.82 443.708 398.477 443.708 362.818V334.807C443.709 331.687 444.639 328.638 446.379 326.049C448.119 323.46 450.59 321.449 453.478 320.272L492.778 304.205C501.629 300.585 511.547 300.585 520.398 304.205L559.697 320.272C562.584 321.45 565.055 323.461 566.795 326.05C568.535 328.639 569.466 331.687 569.467 334.807V362.818Z" fill="#316C57"/>
<path d="M532.092 354.65L502.665 384.097L485.008 366.429" stroke="white" stroke-opacity="0.5" stroke-width="12.547" stroke-linecap="round" stroke-linejoin="round"/>
</g>
<defs>
<linearGradient id="paint0_linear_44_320" x1="468.327" y1="239.566" x2="403.458" y2="-51.7344" gradientUnits="userSpaceOnUse">
<stop stop-color="white"/>
<stop offset="1" stop-color="#EEEEEE"/>
</linearGradient>
<linearGradient id="paint1_linear_44_320" x1="540.774" y1="303.618" x2="763.531" y2="127.531" gradientUnits="userSpaceOnUse">
<stop stop-color="white"/>
<stop offset="1" stop-color="#EEEEEE"/>
</linearGradient>
<linearGradient id="paint2_linear_44_320" x1="192.869" y1="207.371" x2="192.277" y2="39.3129" gradientUnits="userSpaceOnUse">
<stop stop-color="white"/>
<stop offset="1" stop-color="#EEEEEE"/>
</linearGradient>
<clipPath id="clip0_44_320">
<rect width="766" height="511" fill="white"/>
</clipPath>
</defs>
</svg>
