<svg width="1081" height="711" viewBox="0 0 1081 711" fill="none" xmlns="http://www.w3.org/2000/svg">
<g clip-path="url(#clip0_41_56)">
<path d="M539.899 613.367C708.06 613.367 844.381 605.351 844.381 595.462C844.381 585.574 708.06 577.558 539.899 577.558C371.739 577.558 235.418 585.574 235.418 595.462C235.418 605.351 371.739 613.367 539.899 613.367Z" fill="url(#paint0_linear_41_56)" fill-opacity="0.2"/>
<path fill-rule="evenodd" clip-rule="evenodd" d="M349.502 119.685C324.686 119.685 304.384 139.64 304.384 164.035C304.384 188.429 324.686 208.385 349.502 208.385C354.48 208.385 358.558 212.392 358.558 217.286C358.558 222.18 354.48 226.188 349.502 226.188H325.894C313.788 226.188 303.881 235.926 303.881 247.826C303.881 259.726 313.788 269.464 325.894 269.464C336.364 269.464 344.931 277.886 344.931 288.178C344.931 306.956 360.562 322.32 379.665 322.32H583.557C608.375 322.32 628.676 302.365 628.676 277.97C628.676 253.576 608.375 233.62 583.557 233.62H579.194C574.215 233.62 570.137 229.617 570.137 224.719C570.137 219.825 574.21 215.817 579.194 215.817H608.571C620.677 215.817 630.583 206.079 630.583 194.179C630.583 182.293 620.702 172.566 608.616 172.541H584.977C574.507 172.541 565.94 164.119 565.94 153.827C565.94 135.049 550.309 119.685 531.207 119.685H349.502Z" fill="url(#paint1_linear_41_56)" fill-opacity="0.2"/>
<path d="M661.62 100.078C661.008 99.8612 660.389 99.6648 659.764 99.4891C659.558 99.4298 659.352 99.3682 659.146 99.316C658.702 99.2052 658.256 99.0997 657.809 98.9996C657.595 98.9522 657.381 98.9131 657.164 98.8729C656.716 98.7907 656.266 98.7164 655.815 98.6501C655.551 98.6137 655.287 98.5805 655.022 98.5505C654.83 98.528 654.638 98.5067 654.443 98.4877C654.14 98.4604 653.836 98.4379 653.532 98.4202C653.371 98.4107 653.211 98.3953 653.05 98.3894C652.582 98.3669 652.11 98.355 651.635 98.355H434.108C432.613 98.3507 431.12 98.4624 429.642 98.6892C429.159 98.7628 428.678 98.8478 428.199 98.944C415.785 101.451 406.23 111.718 404.928 124.395C404.827 125.381 404.776 126.371 404.777 127.361V567.049C404.777 579.604 412.841 590.292 424.128 594.332C424.178 594.351 424.229 594.366 424.279 594.382C424.839 594.577 425.408 594.756 425.981 594.917C426.189 594.977 426.393 595.039 426.603 595.092C426.824 595.147 427.044 595.201 427.264 595.253C427.487 595.305 427.714 595.358 427.94 595.408C428.154 595.454 428.368 595.495 428.585 595.535C429.033 595.617 429.482 595.692 429.932 595.758C430.192 595.796 430.457 595.826 430.723 595.857C430.915 595.878 431.108 595.901 431.302 595.919C431.605 595.947 431.91 595.969 432.215 595.987C432.375 595.997 432.536 596.012 432.695 596.018C433.164 596.04 433.636 596.053 434.112 596.053H651.641C652.654 596.053 653.654 596.003 654.642 595.903C668.445 594.518 679.422 583.662 680.825 570.01C680.925 569.033 680.975 568.044 680.975 567.043V127.361C680.969 114.806 672.905 104.116 661.62 100.078Z" fill="white" fill-opacity="0.2" stroke="#E1E4E5" stroke-opacity="0.2" stroke-width="4"/>
<path d="M542.872 572.424C552.212 572.424 559.783 564.955 559.783 555.741C559.783 546.528 552.212 539.058 542.872 539.058C533.533 539.058 525.963 546.528 525.963 555.741C525.963 564.955 533.533 572.424 542.872 572.424Z" fill="white" fill-opacity="0.2" stroke="#E1E4E5" stroke-opacity="0.2" stroke-width="4"/>
<path d="M569.647 121.986H517.508C516.73 121.986 516.099 122.609 516.099 123.376C516.099 124.144 516.73 124.766 517.508 124.766H569.647C570.425 124.766 571.056 124.144 571.056 123.376C571.056 122.609 570.425 121.986 569.647 121.986Z" fill="white" fill-opacity="0.2" stroke="#E1E4E5" stroke-opacity="0.2" stroke-width="2.346"/>
<path d="M637.218 142.84H449.936C436.669 142.84 425.914 153.451 425.914 166.54V487.554C425.914 500.643 436.669 511.254 449.936 511.254H637.218C650.485 511.254 661.241 500.643 661.241 487.554V166.54C661.241 153.451 650.485 142.84 637.218 142.84Z" fill="white" fill-opacity="0.2" stroke="#E1E4E5" stroke-opacity="0.2" stroke-width="4"/>
<path fill-rule="evenodd" clip-rule="evenodd" d="M503.266 272.902V278.65C503.267 280.176 503.883 281.638 504.976 282.716C506.07 283.794 507.553 284.4 509.099 284.4H579.107C580.654 284.4 582.137 283.794 583.23 282.716C584.324 281.638 584.94 280.176 584.941 278.65V272.81C584.941 255.413 564.767 244.11 544.103 244.11C523.439 244.11 503.266 255.418 503.266 272.81M529.665 191.945C521.691 199.812 521.691 212.568 529.665 220.435C537.639 228.302 550.568 228.302 558.542 220.435C566.516 212.568 566.516 199.812 558.542 191.945C550.568 184.078 537.639 184.078 529.665 191.945Z" fill="#2AAD7E" fill-opacity="0.8"/>
<path d="M628.782 315.21H459.425C451.133 315.21 444.411 321.842 444.411 330.022C444.411 338.203 451.133 344.835 459.425 344.835H628.782C637.074 344.835 643.796 338.203 643.796 330.022C643.796 321.842 637.074 315.21 628.782 315.21Z" fill="white" fill-opacity="0.2" stroke="#E1E4E5" stroke-opacity="0.2" stroke-width="4"/>
<path d="M628.782 360.24H459.425C451.133 360.24 444.411 366.872 444.411 375.052C444.411 383.233 451.133 389.865 459.425 389.865H628.782C637.074 389.865 643.796 383.233 643.796 375.052C643.796 366.872 637.074 360.24 628.782 360.24Z" fill="white" fill-opacity="0.2" stroke="#E1E4E5" stroke-opacity="0.2" stroke-width="4"/>
<path d="M628.782 405.27H459.425C451.133 405.27 444.411 411.902 444.411 420.082C444.411 428.263 451.133 434.895 459.425 434.895H628.782C637.074 434.895 643.796 428.263 643.796 420.082C643.796 411.902 637.074 405.27 628.782 405.27Z" fill="#2AAD7E" fill-opacity="0.8" stroke="#2AAD7E" stroke-opacity="0.8" stroke-width="4"/>
<path fill-rule="evenodd" clip-rule="evenodd" d="M380.5 365.937H377.143C376.331 365.937 375.678 365.286 375.678 364.492V361.18C375.678 360.379 376.338 359.734 377.143 359.734H380.5C381.305 359.734 381.965 360.386 381.965 361.18V364.492C381.973 365.286 381.312 365.937 380.5 365.937ZM368.86 365.937H365.503C364.698 365.937 364.038 365.286 364.038 364.492V361.18C364.038 360.379 364.698 359.734 365.503 359.734H368.86C369.665 359.734 370.325 360.386 370.325 361.18V364.492C370.325 365.286 369.665 365.937 368.86 365.937ZM357.214 365.937H353.857C353.052 365.937 352.392 365.286 352.392 364.492V361.18C352.392 360.379 353.052 359.734 353.857 359.734H357.214C358.019 359.734 358.679 360.386 358.679 361.18V364.492C358.685 365.286 358.025 365.937 357.214 365.937ZM345.574 365.937H342.217C341.412 365.937 340.752 365.286 340.752 364.492V361.18C340.752 360.379 341.412 359.734 342.217 359.734H345.574C346.386 359.734 347.046 360.386 347.046 361.18V364.492C347.042 364.875 346.885 365.241 346.61 365.512C346.335 365.782 345.963 365.935 345.574 365.937ZM333.934 365.937H330.577C329.765 365.937 329.104 365.286 329.104 364.492V361.18C329.104 360.379 329.765 359.734 330.577 359.734H333.934C334.739 359.734 335.4 360.386 335.4 361.18V364.492C335.4 365.286 334.739 365.937 333.934 365.937ZM368.434 353.416H365.077C364.272 353.416 363.611 352.764 363.611 351.97V348.651C363.611 347.857 364.272 347.205 365.077 347.205H368.434C369.246 347.205 369.899 347.857 369.899 348.651V351.963C369.9 352.153 369.863 352.342 369.79 352.519C369.717 352.695 369.609 352.855 369.473 352.99C369.337 353.125 369.175 353.233 368.997 353.305C368.818 353.378 368.627 353.416 368.434 353.416ZM356.794 353.416H353.437C352.632 353.416 351.971 352.764 351.971 351.97V348.651C351.971 347.857 352.632 347.205 353.437 347.205H356.794C357.598 347.205 358.259 347.857 358.259 348.651V351.963C358.26 352.153 358.223 352.342 358.15 352.519C358.077 352.695 357.969 352.855 357.833 352.99C357.697 353.125 357.535 353.233 357.357 353.305C357.178 353.378 356.987 353.416 356.794 353.416ZM345.154 353.416H341.797C340.986 353.416 340.325 352.764 340.325 351.97V348.651C340.325 347.857 340.986 347.205 341.797 347.205H345.154C345.96 347.205 346.619 347.857 346.619 348.651V351.963C346.619 352.764 345.96 353.416 345.154 353.416ZM357.214 379.39H353.857C353.052 379.39 352.392 378.738 352.392 377.944V374.632C352.392 373.831 353.052 373.186 353.857 373.186H357.214C358.019 373.186 358.679 373.838 358.679 374.632V377.944C358.685 378.738 358.025 379.39 357.214 379.39ZM345.574 379.39H342.217C341.412 379.39 340.752 378.738 340.752 377.944V374.632C340.752 373.831 341.412 373.186 342.217 373.186H345.574C346.386 373.186 347.046 373.838 347.046 374.632V377.944C347.042 378.327 346.885 378.694 346.61 378.964C346.335 379.235 345.963 379.387 345.574 379.39Z" fill="#E1E4E5" fill-opacity="0.2"/>
<path d="M721.373 136.148L749.241 108.654C750.255 107.653 750.255 106.031 749.241 105.03L749.24 105.029C748.225 104.028 746.58 104.028 745.566 105.029L717.698 132.523C716.683 133.524 716.683 135.146 717.698 136.147L717.699 136.148C718.713 137.149 720.358 137.149 721.373 136.148Z" fill="#E1E4E5" fill-opacity="0.2"/>
<path d="M724.102 116.463L732.139 108.534C733.154 107.533 733.154 105.91 732.139 104.909L732.138 104.908C731.124 103.907 729.479 103.907 728.464 104.908L720.427 112.837C719.412 113.838 719.412 115.461 720.427 116.462L720.428 116.463C721.442 117.464 723.087 117.464 724.102 116.463Z" fill="#E1E4E5" fill-opacity="0.2"/>
<path d="M340.401 167.819L355.008 153.409C355.54 152.884 355.54 152.033 355.008 151.508C354.476 150.984 353.613 150.984 353.082 151.508L338.475 165.919C337.943 166.444 337.943 167.295 338.475 167.819C339.007 168.344 339.869 168.344 340.401 167.819Z" fill="#E1E4E5" fill-opacity="0.2"/>
<path d="M341.831 157.502L346.044 153.346C346.576 152.821 346.576 151.97 346.044 151.446C345.512 150.921 344.65 150.921 344.118 151.446L339.905 155.602C339.373 156.126 339.373 156.977 339.905 157.502C340.437 158.027 341.299 158.027 341.831 157.502Z" fill="#E1E4E5" fill-opacity="0.2"/>
<path d="M623.377 479.925C623.377 483.852 626.603 487.035 630.583 487.035C634.564 487.035 637.79 483.852 637.79 479.925C637.79 475.998 634.564 472.815 630.583 472.815C626.603 472.815 623.377 475.998 623.377 479.925Z" fill="#E1E4E5" fill-opacity="0.2"/>
<path d="M355.529 174.195C355.529 178.122 358.755 181.305 362.735 181.305C366.716 181.305 369.942 178.122 369.942 174.195C369.942 170.268 366.716 167.085 362.735 167.085C358.755 167.085 355.529 170.268 355.529 174.195Z" fill="#E1E4E5" fill-opacity="0.2"/>
<path d="M287.424 459.515C290.576 458.682 292.446 455.486 291.602 452.376C290.757 449.266 287.517 447.421 284.365 448.254C281.214 449.087 279.343 452.284 280.188 455.393C281.032 458.503 284.272 460.348 287.424 459.515Z" fill="#E1E4E5" fill-opacity="0.2"/>
<path d="M612.949 247.544C613.675 253.08 615.619 259.754 618.766 262.021C622.335 264.594 623.438 267.325 623.438 267.325L627.065 266.223L631.401 264.904C631.401 264.904 631.407 264.467 631.381 263.741C631.348 262.782 631.27 261.826 631.148 260.874C631.148 260.874 630.322 259.12 631.481 257.416C632.639 255.716 633.171 252.797 632.355 250.758C631.544 248.726 631.375 244.121 630.607 244.084C628.748 243.982 630.022 250.542 628.996 251.466C628.072 252.31 627.282 251.77 627.141 251.654L627.112 251.631C622.609 248.312 619.279 235.201 616.216 236.173C615.075 236.533 612.635 245.187 612.949 247.544ZM796.008 383.781C796.008 383.781 792.164 390.345 793.885 394.131C795.603 397.919 801.562 402.968 803.099 404.949C804.63 406.927 809.829 412.151 811.924 408.789C814.017 405.435 810.32 396.514 807.757 393.152C805.197 389.782 804.954 384.002 804.954 384.002L796.008 383.781Z" fill="#F8AE9D"/>
<path d="M793.548 393.038C793.548 393.038 793.841 400.271 794.189 402.201C794.54 404.136 794.886 403.545 796.226 402.246C797.567 400.947 797.551 397.162 798.053 396.913C798.556 396.663 793.548 393.038 793.548 393.038Z" fill="#F8AE9D"/>
<g filter="url(#filter0_i_41_56)">
<path d="M726.302 246.753C726.302 246.753 681.459 294.442 667.498 301.914L632.326 260.955C632.326 260.955 625.724 261.411 621.591 266.905C621.591 266.905 635.236 324.673 660.134 332.673C685.032 340.674 735.791 284.426 735.791 284.426L726.302 246.753ZM684.492 596.322H730.541C732.753 593.749 731.938 584.249 731.606 581.143C731.537 580.516 731.49 580.156 731.49 580.156C731.49 580.156 715.765 568.177 713.605 577.35C713.54 577.636 713.462 577.919 713.372 578.198C710.654 586.778 698.446 590.676 691.402 591.763C686.815 592.468 685.12 594.736 684.492 596.322Z" fill="#2AAD7E"/>
</g>
<g filter="url(#filter1_i_41_56)">
<path d="M715.495 596.322H761.544C763.757 593.749 762.941 584.249 762.609 581.143C762.54 580.516 762.493 580.156 762.493 580.156C762.493 580.156 746.768 568.177 744.608 577.35C744.543 577.636 744.466 577.919 744.375 578.198C741.657 586.778 729.449 590.676 722.405 591.763C717.818 592.468 716.123 594.736 715.495 596.322Z" fill="#2AAD7E" fill-opacity="0.8"/>
</g>
<g filter="url(#filter2_i_41_56)">
<path d="M697.071 392.049C697.071 392.049 699.272 415.557 701.86 443.812C705.376 482.195 709.607 529.345 710.026 538.277C710.751 553.787 713.65 578.595 713.65 578.595C713.65 578.595 720.533 584.489 734.31 582.004C734.31 582.004 746.59 546.588 750.096 509.113L750.257 507.262C753.521 469.117 758.589 388.787 758.589 388.787L697.071 392.049Z" fill="#40846B"/>
</g>
<g filter="url(#filter3_i_41_56)">
<path d="M709.559 393.658C709.559 393.658 713.711 416.933 718.642 444.909C725.343 482.917 733.483 529.608 734.636 538.476C736.634 553.874 741.603 578.402 741.603 578.402C741.603 578.402 749.09 583.87 762.913 580.593C762.913 580.593 772.535 544.621 773.059 507.11L773.072 505.258C773.295 467.094 771.924 386.83 771.924 386.83L709.559 393.658Z" fill="#40846B"/>
</g>
<path d="M716.692 255.34C732.514 260.27 758.627 246.372 758.627 246.372C758.627 246.372 745.307 236.162 746.069 213.697L733.836 223.427L725.524 230.032C725.524 230.032 725.556 233.93 726.466 240.756C726.707 242.551 727.145 245.357 725.781 246.794C720.483 252.373 716.692 255.34 716.692 255.34Z" fill="#F8AE9D"/>
<g filter="url(#filter4_d_41_56)">
<path d="M720.686 229.666C720.686 229.666 746.826 233.952 749.28 217.849C751.735 201.746 756.759 191.455 740.174 188.038C723.589 184.623 719.398 190.281 717.255 195.46C715.114 200.638 713.952 228.136 720.686 229.666Z" fill="#F8AE9D"/>
</g>
<g filter="url(#filter5_i_41_56)">
<path d="M694.601 400.38C695.078 400.768 695.632 401.006 696.267 401.006C702.212 400.926 719.541 404.185 734.203 402.699C746.564 401.525 757.511 397.915 769.258 392.72C770.819 392.028 774.408 390.136 774.331 388.417C774.276 386.53 774.09 383.801 773.848 380.358C773.016 368.39 771.57 347.812 772.983 324.066C773.235 319.644 773.371 315.261 773.388 310.942C773.508 278.758 767.044 250.455 754.042 240.876C752.93 240.093 746.115 243.379 739.852 246.423C734.066 249.239 729.53 249.536 724.062 248.445L717.35 253.223C710.693 259.319 703.401 267.612 700.229 280.196C697.533 290.909 695.949 310.222 695.078 330.239C694.684 339.309 694.366 348.461 694.284 357.137V357.445C694.207 358.304 694.207 359.245 694.207 360.104C693.889 382.396 694.207 400.065 694.601 400.38Z" fill="#2AAD7E"/>
</g>
<g filter="url(#filter6_i_41_56)">
<path d="M799.927 387.124C794.965 387.789 789.671 387.103 789.671 387.103C789.671 387.103 777.706 341.881 776.067 337.721C774.428 333.561 735.857 283.206 735.857 283.206L755.593 241.617C755.593 241.617 796.034 317.944 799.971 328.57C806.478 346.127 806.837 384.682 806.837 384.682C806.837 384.682 803.826 386.605 799.927 387.124ZM752.221 212.081C750.798 214.984 746.67 215.413 747.05 212.211C747.483 208.567 747.478 203.8 744.475 204.686C741.472 205.573 741.32 207.946 740.086 206.562C738.854 205.178 738.832 199.341 729.89 198.93C720.949 198.524 717.317 201.595 713.163 199.789C710.675 198.709 709.596 196.051 709.132 194.092C709.001 193.538 709.41 192.763 709.786 193.195C710.141 193.604 711.034 193.579 710.779 193.103C709.205 190.155 706.849 183.719 712.851 178.924C720.883 172.508 729.068 176.708 733.714 176.983C743.955 177.595 750.568 178.2 753.91 184.837C756.681 190.344 756.205 203.948 752.221 212.081Z" fill="#2AAD7E"/>
</g>
<path d="M288.938 527.397C282.282 534.081 269.833 532.672 269.833 532.672C269.833 532.672 268.187 520.425 274.849 513.745C281.506 507.06 293.948 508.466 293.948 508.466C293.948 508.466 295.595 520.713 288.938 527.397Z" fill="url(#paint2_linear_41_56)" fill-opacity="0.2"/>
<path d="M802.943 554.58C807.255 554.58 810.75 551.131 810.75 546.877C810.75 542.624 807.255 539.175 802.943 539.175C798.631 539.175 795.135 542.624 795.135 546.877C795.135 551.131 798.631 554.58 802.943 554.58Z" fill="#E1E4E5" fill-opacity="0.2"/>
<path d="M441.434 318.661L422.808 313.623L437.242 324.148C427.593 336.689 417.565 350.239 416.65 366.223C416.33 371.441 415.69 376.388 414.624 381.005L392.63 385.712L386.898 386.929L394.246 387.531L412.352 389.034C411.088 392.718 409.593 396.177 407.855 399.379C399.732 414.447 385.481 458.205 369.95 460.657H369.935C369.462 459.724 347.225 416.582 367.755 350.599C370.408 342.122 373.943 333.938 378.302 326.178C378.439 325.924 378.577 325.683 378.714 325.442C403.649 281.504 448.855 260.195 455.043 282.601C458.443 294.872 450.792 306.405 441.434 318.661Z" fill="#2AAD7E" fill-opacity="0.8"/>
<path d="M407.856 399.41C395.617 438.206 385.481 458.236 369.951 460.687H369.935C369.31 460.687 335.29 460.205 364.89 354.765C367.374 345.938 373.913 333.969 378.302 326.209C378.44 325.953 378.577 325.713 378.714 325.472C377.372 336.585 376.763 353.141 381.701 368.133C381.701 368.133 385.1 376.568 392.63 385.741L386.898 386.959L394.245 387.561C397.888 391.696 402.4 395.906 407.856 399.41Z" fill="#2AAD7E" fill-opacity="0.8"/>
<path d="M369.706 511.348C368.623 360.585 422.884 288.391 451.645 277.113Z" fill="#2AAD7E" fill-opacity="0.8"/>
<path d="M369.706 511.348C368.623 360.585 422.884 288.391 451.645 277.113" stroke="#2AAD7E" stroke-opacity="0.8" stroke-width="2.5" stroke-miterlimit="10"/>
<path d="M369.584 368.388L359.357 377.485L369.828 374.358C370.621 405.996 364.829 436.071 349.267 438.837C328.63 442.551 317.076 388.237 316.361 349.983L331.114 353.772L316.498 344.238C316.573 341.863 316.711 334.96 316.894 332.855C318.936 310.36 326.602 287.412 340.366 273.127C348.931 287.097 356.247 303.202 361.43 319.142C365.773 332.465 368.7 350.419 369.584 368.388Z" fill="#2AAD7E" fill-opacity="0.8"/>
<path d="M316.878 332.855L361.43 319.142C356.263 303.202 348.917 287.112 340.366 273.127C326.618 287.412 318.922 310.36 316.878 332.855Z" fill="#2AAD7E" fill-opacity="0.8"/>
<path d="M342.881 280.812C348.978 344.284 351.553 465.032 347.85 508.61Z" fill="#2AAD7E" fill-opacity="0.8"/>
<path d="M342.881 280.812C348.978 344.284 351.553 465.032 347.85 508.61" stroke="#2AAD7E" stroke-opacity="0.8" stroke-width="2.5" stroke-miterlimit="10"/>
<path d="M328.995 460.806C317.229 465.558 297.46 440.31 282.249 407.229C281.368 405.287 280.505 403.337 279.658 401.38C278.002 397.537 276.437 393.656 274.964 389.741L284.459 388.223L272.098 381.816C265.438 362.283 261.064 342.012 261.094 324.69L306.621 333.682C317.443 351.185 326.267 375.531 331.495 398.282L326.816 411.59L333.37 407.139C338.567 434.16 338.079 457.153 328.995 460.806Z" fill="#2AAD7E" fill-opacity="0.8"/>
<path d="M274.552 334.704C307.963 403.74 341.326 480.355 338.628 512.97Z" fill="#2AAD7E" fill-opacity="0.8"/>
<path d="M274.552 334.704C307.963 403.74 341.326 480.355 338.628 512.97" stroke="#2AAD7E" stroke-opacity="0.8" stroke-width="2.5" stroke-miterlimit="10"/>
<path d="M336.671 378.316C336.671 378.316 323.17 371.867 316.112 355.624L289.195 352.205L313.96 349.481C312.476 344.266 311.658 338.302 312.001 331.418C312.04 330.639 312.034 329.883 312.074 329.104C305.089 329.234 296.062 329.15 295.208 329.121L312.105 320.576C310.46 277.17 286.322 250.571 273.303 282.262C270.646 288.764 267.275 296.004 264.229 304.677L270.914 323.715L261.122 313.889C260.248 316.715 260.108 317.477 259.95 319.258C258.579 334.759 266.48 349.631 279.669 358.222C296.201 368.938 321.516 382.821 336.671 378.316Z" fill="#2AAD7E" fill-opacity="0.8"/>
<path d="M320.784 580.504L326.309 495.792H378.164L384.136 580.424C384.772 589.566 377.428 597.335 368.136 597.335H336.783C327.517 597.335 320.187 589.619 320.784 580.504Z" fill="white" fill-opacity="0.2" stroke="#E1E4E5" stroke-opacity="0.2" stroke-width="4"/>
<path d="M317.955 498.557V488.29H387.041V498.557H317.955Z" fill="#E1E4E5" fill-opacity="0.2" stroke="#E1E4E5" stroke-opacity="0.2" stroke-width="4"/>
</g>
<defs>
<filter id="filter0_i_41_56" x="621.591" y="246.753" width="114.2" height="353.569" filterUnits="userSpaceOnUse" color-interpolation-filters="sRGB">
<feFlood flood-opacity="0" result="BackgroundImageFix"/>
<feBlend mode="normal" in="SourceGraphic" in2="BackgroundImageFix" result="shape"/>
<feColorMatrix in="SourceAlpha" type="matrix" values="0 0 0 0 0 0 0 0 0 0 0 0 0 0 0 0 0 0 127 0" result="hardAlpha"/>
<feOffset dy="4"/>
<feGaussianBlur stdDeviation="2"/>
<feComposite in2="hardAlpha" operator="arithmetic" k2="-1" k3="1"/>
<feColorMatrix type="matrix" values="0 0 0 0 0 0 0 0 0 0 0 0 0 0 0 0 0 0 0.25 0"/>
<feBlend mode="normal" in2="shape" result="effect1_innerShadow_41_56"/>
</filter>
<filter id="filter1_i_41_56" x="713.495" y="571.892" width="49.5386" height="24.4299" filterUnits="userSpaceOnUse" color-interpolation-filters="sRGB">
<feFlood flood-opacity="0" result="BackgroundImageFix"/>
<feBlend mode="normal" in="SourceGraphic" in2="BackgroundImageFix" result="shape"/>
<feColorMatrix in="SourceAlpha" type="matrix" values="0 0 0 0 0 0 0 0 0 0 0 0 0 0 0 0 0 0 127 0" result="hardAlpha"/>
<feOffset dx="-2" dy="-2"/>
<feGaussianBlur stdDeviation="2"/>
<feComposite in2="hardAlpha" operator="arithmetic" k2="-1" k3="1"/>
<feColorMatrix type="matrix" values="0 0 0 0 0 0 0 0 0 0 0 0 0 0 0 0 0 0 0.25 0"/>
<feBlend mode="normal" in2="shape" result="effect1_innerShadow_41_56"/>
</filter>
<filter id="filter2_i_41_56" x="697.071" y="388.787" width="65.5186" height="197.829" filterUnits="userSpaceOnUse" color-interpolation-filters="sRGB">
<feFlood flood-opacity="0" result="BackgroundImageFix"/>
<feBlend mode="normal" in="SourceGraphic" in2="BackgroundImageFix" result="shape"/>
<feColorMatrix in="SourceAlpha" type="matrix" values="0 0 0 0 0 0 0 0 0 0 0 0 0 0 0 0 0 0 127 0" result="hardAlpha"/>
<feOffset dx="4" dy="4"/>
<feGaussianBlur stdDeviation="2"/>
<feComposite in2="hardAlpha" operator="arithmetic" k2="-1" k3="1"/>
<feColorMatrix type="matrix" values="0 0 0 0 0 0 0 0 0 0 0 0 0 0 0 0 0 0 0.25 0"/>
<feBlend mode="normal" in2="shape" result="effect1_innerShadow_41_56"/>
</filter>
<filter id="filter3_i_41_56" x="709.559" y="386.83" width="67.5378" height="198.809" filterUnits="userSpaceOnUse" color-interpolation-filters="sRGB">
<feFlood flood-opacity="0" result="BackgroundImageFix"/>
<feBlend mode="normal" in="SourceGraphic" in2="BackgroundImageFix" result="shape"/>
<feColorMatrix in="SourceAlpha" type="matrix" values="0 0 0 0 0 0 0 0 0 0 0 0 0 0 0 0 0 0 127 0" result="hardAlpha"/>
<feOffset dx="4" dy="4"/>
<feGaussianBlur stdDeviation="2"/>
<feComposite in2="hardAlpha" operator="arithmetic" k2="-1" k3="1"/>
<feColorMatrix type="matrix" values="0 0 0 0 0 0 0 0 0 0 0 0 0 0 0 0 0 0 0.25 0"/>
<feBlend mode="normal" in2="shape" result="effect1_innerShadow_41_56"/>
</filter>
<filter id="filter4_d_41_56" x="709.586" y="182.998" width="48.3667" height="55.1848" filterUnits="userSpaceOnUse" color-interpolation-filters="sRGB">
<feFlood flood-opacity="0" result="BackgroundImageFix"/>
<feColorMatrix in="SourceAlpha" type="matrix" values="0 0 0 0 0 0 0 0 0 0 0 0 0 0 0 0 0 0 127 0" result="hardAlpha"/>
<feOffset dy="2"/>
<feGaussianBlur stdDeviation="3"/>
<feComposite in2="hardAlpha" operator="out"/>
<feColorMatrix type="matrix" values="0 0 0 0 0 0 0 0 0 0 0 0 0 0 0 0 0 0 0.25 0"/>
<feBlend mode="normal" in2="BackgroundImageFix" result="effect1_dropShadow_41_56"/>
<feBlend mode="normal" in="SourceGraphic" in2="effect1_dropShadow_41_56" result="shape"/>
</filter>
<filter id="filter5_i_41_56" x="694.077" y="240.759" width="82.2549" height="166.328" filterUnits="userSpaceOnUse" color-interpolation-filters="sRGB">
<feFlood flood-opacity="0" result="BackgroundImageFix"/>
<feBlend mode="normal" in="SourceGraphic" in2="BackgroundImageFix" result="shape"/>
<feColorMatrix in="SourceAlpha" type="matrix" values="0 0 0 0 0 0 0 0 0 0 0 0 0 0 0 0 0 0 127 0" result="hardAlpha"/>
<feOffset dx="2" dy="4"/>
<feGaussianBlur stdDeviation="2"/>
<feComposite in2="hardAlpha" operator="arithmetic" k2="-1" k3="1"/>
<feColorMatrix type="matrix" values="0 0 0 0 0 0 0 0 0 0 0 0 0 0 0 0 0 0 0.25 0"/>
<feBlend mode="normal" in2="shape" result="effect1_innerShadow_41_56"/>
</filter>
<filter id="filter6_i_41_56" x="704.973" y="175.38" width="101.864" height="214.034" filterUnits="userSpaceOnUse" color-interpolation-filters="sRGB">
<feFlood flood-opacity="0" result="BackgroundImageFix"/>
<feBlend mode="normal" in="SourceGraphic" in2="BackgroundImageFix" result="shape"/>
<feColorMatrix in="SourceAlpha" type="matrix" values="0 0 0 0 0 0 0 0 0 0 0 0 0 0 0 0 0 0 127 0" result="hardAlpha"/>
<feOffset dx="-4" dy="2"/>
<feGaussianBlur stdDeviation="3"/>
<feComposite in2="hardAlpha" operator="arithmetic" k2="-1" k3="1"/>
<feColorMatrix type="matrix" values="0 0 0 0 0 0 0 0 0 0 0 0 0 0 0 0 0 0 0.25 0"/>
<feBlend mode="normal" in2="shape" result="effect1_innerShadow_41_56"/>
</filter>
<linearGradient id="paint0_linear_41_56" x1="552.883" y1="633.443" x2="552.819" y2="538.591" gradientUnits="userSpaceOnUse">
<stop stop-color="white"/>
<stop offset="1" stop-color="#EEEEEE"/>
</linearGradient>
<linearGradient id="paint1_linear_41_56" x1="474.199" y1="435.928" x2="470.322" y2="-100.792" gradientUnits="userSpaceOnUse">
<stop stop-color="white"/>
<stop offset="1" stop-color="#EEEEEE"/>
</linearGradient>
<linearGradient id="paint2_linear_41_56" x1="262.379" y1="550.229" x2="309.586" y2="475.223" gradientUnits="userSpaceOnUse">
<stop stop-color="white"/>
<stop offset="1" stop-color="#EEEEEE"/>
</linearGradient>
<clipPath id="clip0_41_56">
<rect width="1081" height="711" fill="white"/>
</clipPath>
</defs>
</svg>
